<svg width="30" height="29" viewBox="0 0 30 29" fill="none" xmlns="http://www.w3.org/2000/svg">
<path d="M15 0C23.2845 0 30 6.29233 30 14.0548C30 21.8173 23.2845 28.1096 15 28.1096C6.7155 28.1096 0 21.8173 0 14.0548C0 6.29233 6.7155 0 15 0ZM15 2.81096C11.8174 2.81096 8.76515 3.99557 6.51472 6.1042C4.26428 8.21283 3 11.0727 3 14.0548C3 17.0368 4.26428 19.8968 6.51472 22.0054C8.76515 24.114 11.8174 25.2986 15 25.2986C18.1826 25.2986 21.2348 24.114 23.4853 22.0054C25.7357 19.8968 27 17.0368 27 14.0548C27 11.0727 25.7357 8.21283 23.4853 6.1042C21.2348 3.99557 18.1826 2.81096 15 2.81096ZM20.7495 7.50104C20.9216 7.38796 21.1307 7.3354 21.3401 7.35263C21.5494 7.36986 21.7456 7.45576 21.894 7.59521C22.0421 7.73398 22.1329 7.91748 22.1502 8.11306C22.1675 8.30865 22.1102 8.50364 21.9885 8.66337C18.7185 12.9445 16.9185 15.2382 16.5915 15.546C16.1691 15.941 15.5967 16.1628 15 16.1628C14.4033 16.1628 13.8309 15.941 13.4085 15.546C12.987 15.1502 12.7502 14.6139 12.7502 14.0548C12.7502 13.4957 12.987 12.9594 13.4085 12.5636C13.9695 12.0393 16.416 10.3514 20.7495 7.50104ZM23.25 12.6493C23.6478 12.6493 24.0294 12.7974 24.3107 13.061C24.592 13.3245 24.75 13.682 24.75 14.0548C24.75 14.4276 24.592 14.785 24.3107 15.0486C24.0294 15.3122 23.6478 15.4603 23.25 15.4603C22.8522 15.4603 22.4706 15.3122 22.1893 15.0486C21.908 14.785 21.75 14.4276 21.75 14.0548C21.75 13.682 21.908 13.3245 22.1893 13.061C22.4706 12.7974 22.8522 12.6493 23.25 12.6493ZM6.75 12.6493C7.14782 12.6493 7.52936 12.7974 7.81066 13.061C8.09196 13.3245 8.25 13.682 8.25 14.0548C8.25 14.4276 8.09196 14.785 7.81066 15.0486C7.52936 15.3122 7.14782 15.4603 6.75 15.4603C6.35218 15.4603 5.97064 15.3122 5.68934 15.0486C5.40804 14.785 5.25 14.4276 5.25 14.0548C5.25 13.682 5.40804 13.3245 5.68934 13.061C5.97064 12.7974 6.35218 12.6493 6.75 12.6493ZM10.227 7.59521C10.5083 7.85912 10.6661 8.21691 10.6658 8.58988C10.6656 8.96284 10.5072 9.32043 10.2255 9.58396C9.94384 9.8475 9.56199 9.99541 9.16394 9.99515C8.76589 9.99488 8.38426 9.84647 8.103 9.58256C7.96373 9.45188 7.8533 9.29679 7.778 9.12612C7.70271 8.95545 7.66403 8.77256 7.66417 8.58789C7.66431 8.40322 7.70326 8.22038 7.77882 8.04981C7.85437 7.87925 7.96504 7.7243 8.1045 7.59381C8.38616 7.33027 8.76801 7.18236 9.16606 7.18262C9.36315 7.18275 9.55829 7.21926 9.74032 7.29005C9.92236 7.36084 10.0877 7.46453 10.227 7.59521ZM15 4.91918C15.3978 4.91918 15.7794 5.06726 16.0607 5.33083C16.342 5.59441 16.5 5.9519 16.5 6.32466C16.5 6.69741 16.342 7.0549 16.0607 7.31848C15.7794 7.58206 15.3978 7.73014 15 7.73014C14.6022 7.73014 14.2206 7.58206 13.9393 7.31848C13.658 7.0549 13.5 6.69741 13.5 6.32466C13.5 5.9519 13.658 5.59441 13.9393 5.33083C14.2206 5.06726 14.6022 4.91918 15 4.91918Z" fill="white"/>
</svg>
