<svg width="28" height="28" viewBox="0 0 28 28" fill="none" xmlns="http://www.w3.org/2000/svg">
<path d="M14 12.5145C17.8889 12.5145 21.1944 11.9053 23.9167 10.6867C26.6389 9.46821 28 8.0034 28 6.29229C28 4.58118 26.6389 3.11636 23.9167 1.89785C21.1944 0.679328 17.8889 0.0700684 14 0.0700684C10.1111 0.0700684 6.80556 0.679328 4.08333 1.89785C1.36111 3.11636 0 4.58118 0 6.29229C0 8.0034 1.36111 9.46821 4.08333 10.6867C6.80556 11.9053 10.1111 12.5145 14 12.5145ZM14 16.4034C15.063 16.4034 16.3919 16.293 17.9869 16.0721C19.5819 15.8512 21.1177 15.495 22.5944 15.0034C24.0722 14.5108 25.3426 13.8694 26.4056 13.0792C27.4685 12.289 28 11.323 28 10.1812V14.0701C28 15.2108 27.4685 16.1768 26.4056 16.9681C25.3426 17.7593 24.0722 18.4007 22.5944 18.8923C21.1167 19.3849 19.5808 19.7416 17.9869 19.9625C16.393 20.1834 15.064 20.2933 14 20.2923C12.937 20.2923 11.6081 20.1818 10.0131 19.961C8.41815 19.7401 6.88281 19.3838 5.40711 18.8923C3.92933 18.3997 2.65896 17.7583 1.596 16.9681C0.533037 16.1778 0.00103704 15.2118 0 14.0701V10.1812C0 11.3219 0.531482 12.2879 1.59444 13.0792C2.65741 13.8704 3.92778 14.5118 5.40556 15.0034C6.88333 15.496 8.4197 15.8527 10.0147 16.0736C11.6096 16.2945 12.9381 16.4044 14 16.4034ZM14 24.1812C15.063 24.1812 16.3919 24.0707 17.9869 23.8498C19.5819 23.629 21.1177 23.2727 22.5944 22.7812C24.0722 22.2886 25.3426 21.6467 26.4056 20.8554C27.4685 20.0641 28 19.0987 28 17.959V21.8478C28 22.9886 27.4685 23.9546 26.4056 24.7458C25.3426 25.5371 24.0722 26.1785 22.5944 26.6701C21.1167 27.1627 19.5808 27.5194 17.9869 27.7403C16.393 27.9612 15.064 28.0711 14 28.0701C12.937 28.0701 11.6081 27.9596 10.0131 27.7387C8.41815 27.5178 6.88281 27.1616 5.40711 26.6701C3.92933 26.1775 2.65896 25.5355 1.596 24.7443C0.533037 23.953 0.00103704 22.9875 0 21.8478V17.959C0 19.0997 0.531482 20.0657 1.59444 20.857C2.65741 21.6482 3.92778 22.2896 5.40556 22.7812C6.88333 23.2738 8.4197 23.6305 10.0147 23.8514C11.6096 24.0723 12.9381 24.1822 14 24.1812Z" fill="white"/>
</svg>
