<svg width="30" height="29" viewBox="0 0 30 29" fill="none" xmlns="http://www.w3.org/2000/svg">
<path d="M16.6175 2.64646e-06C17.0586 2.64646e-06 17.4531 0.265353 17.6016 0.662653L18.6605 3.5003C19.0401 3.59165 19.3656 3.683 19.6416 3.7787C19.9431 3.8831 20.3316 4.04115 20.8116 4.2572L23.2775 2.9957C23.4788 2.89262 23.7093 2.85541 23.9343 2.88966C24.1593 2.9239 24.3668 3.02776 24.5256 3.18565L26.6946 5.3534C26.9826 5.64195 27.0636 6.0639 26.9016 6.4322L25.7451 9.05235C25.9371 9.3931 26.0901 9.68455 26.2071 9.92815C26.3331 10.1935 26.4891 10.5589 26.6751 11.0302L29.3706 12.1467C29.7756 12.3134 30.0261 12.7049 29.9991 13.124L29.8011 16.1327C29.7875 16.3282 29.7149 16.5155 29.5923 16.6714C29.4696 16.8274 29.3023 16.9451 29.1111 17.01L26.5581 17.8872C26.4846 18.228 26.4081 18.5194 26.3271 18.7659C26.1964 19.1466 26.0472 19.5211 25.8801 19.8882L27.1626 22.6287C27.2531 22.8213 27.2774 23.0368 27.2321 23.2437C27.1867 23.4506 27.0741 23.638 26.9106 23.7786L24.4715 25.884C24.3109 26.022 24.1105 26.1093 23.8971 26.1342C23.6837 26.1591 23.4675 26.1203 23.2775 26.0232L20.7635 24.7356C20.3702 24.9369 19.9645 25.1146 19.5485 25.2677L18.4506 25.665L17.4755 28.275C17.4033 28.4661 17.273 28.6317 17.1016 28.75C16.9303 28.8682 16.726 28.9336 16.5156 28.9377L13.6656 29C13.4495 29.0055 13.237 28.9461 13.0573 28.83C12.8776 28.714 12.7395 28.5469 12.6621 28.3519L11.5131 25.4127C11.121 25.2832 10.7329 25.143 10.3491 24.9922C10.0351 24.8609 9.72594 24.7192 9.42205 24.5674L6.57205 25.7448C6.38426 25.8222 6.17723 25.8452 5.97616 25.811C5.77509 25.7767 5.58866 25.6867 5.43955 25.5519L3.33055 23.6394C3.17353 23.4976 3.0666 23.3117 3.02488 23.1079C2.98315 22.9042 3.00875 22.6929 3.09805 22.504L4.32355 19.923C4.16057 19.6173 4.00946 19.3058 3.87055 18.9892C3.7084 18.6017 3.55834 18.2095 3.42055 17.8133L0.735551 17.023C0.517302 16.9592 0.326943 16.8276 0.194036 16.6485C0.0611289 16.4694 -0.00688695 16.2529 0.000551204 16.0327L0.105551 13.2472C0.113025 13.0655 0.171756 12.8892 0.275393 12.7373C0.37903 12.5855 0.523629 12.464 0.693551 12.3859L3.51055 11.078C3.64105 10.6155 3.75505 10.2559 3.85555 9.9934C3.99706 9.64286 4.15421 9.2984 4.32655 8.961L3.10555 6.467C3.01289 6.27761 2.98475 6.06468 3.02518 5.85885C3.06561 5.65302 3.17253 5.46489 3.33055 5.3215L5.43655 3.3988C5.58418 3.2642 5.76891 3.17371 5.96849 3.13821C6.16808 3.10271 6.37403 3.12372 6.56155 3.1987L9.40855 4.3355C9.72355 4.1325 10.0086 3.96865 10.2666 3.8367C10.5741 3.67865 10.9851 3.51335 11.5026 3.335L12.4926 0.665553C12.5657 0.470192 12.6995 0.301431 12.8756 0.182313C13.0518 0.0631949 13.2616 -0.000473064 13.4766 2.64646e-06H16.6175ZM15.0366 10.1776C12.5361 10.1776 10.5096 12.1133 10.5096 14.5029C10.5096 16.8925 12.5361 18.8297 15.0366 18.8297C17.5356 18.8297 19.5621 16.8925 19.5621 14.5029C19.5621 12.1133 17.5371 10.1776 15.0366 10.1776Z" fill="white"/>
</svg>
